# xmcd
#
# Track frame offsets:
#	150
#	22360
#	40192
#	52365
#	68365
#	95972
#	110757
#	122122
#	137527
#	148582
#
# Disc length: 2140
#
# Revision: 5
# Processed by: cddbd v1.5.1PL0 Copyright (c) Steve Scherf et al.
# Submitted via: tcd 2.0b
# Normalized: r4:TDELIM( - )
#
DISCID=9c085a0a
DTITLE=Blues Masters - An Anthology of Blues
DYEAR=1900
DGENRE=
TTITLE0=B.B. King - The Thrill is Gone
TTITLE1=John Mayall - Mama Talk To Your Daughter
TTITLE2=Canned Heat - Got My Mojo Working
TTITLE3=Mike Bloomfield - Don't Cry To Me
TTITLE4=Joe Turner - Stormy Monday Blues
TTITLE5=Charles Brown - Baby Let Me Hold Your Hand
TTITLE6=John Lee Hooker - Boom Boom
TTITLE7=Gatemouth Moore - Somebody Got To Go
TTITLE8=Jimmy Reed - Baby What You Want Me To Do
TTITLE9=Lightnin' Hopkins - Lonesome Dog Blues
EXTD=
EXTT0=
EXTT1=
EXTT2=
EXTT3=
EXTT4=
EXTT5=
EXTT6=
EXTT7=
EXTT8=
EXTT9=
PLAYORDER=
